<svg xml:space="preserve" viewBox="343.44 170.64000000000001 466.56 779.76" version="1.1" xmlns:xlink="http://www.w3.org/1999/xlink" xmlns="http://www.w3.org/2000/svg" style="max-height: 500px" width="466.56" height="779.76">
<desc>Created with Fabric.js 5.2.4</desc>
<defs>
</defs>
<rect fill="transparent" height="100%" width="100%" y="0" x="0"/>
<g id="b36e8295-3a7b-46a7-b559-d82b93c81032" transform="matrix(1 0 0 1 540 540)">
<rect height="1080" width="1080" ry="0" rx="0" y="-540" x="-540" style="stroke: none; stroke-width: 1; stroke-dasharray: none; stroke-linecap: butt; stroke-dashoffset: 0; stroke-linejoin: miter; stroke-miterlimit: 4; fill: rgb(255,255,255); fill-rule: nonzero; opacity: 1; visibility: hidden;"/>
</g>
<g id="c7615d3d-5524-4ff5-ab93-8e8b2d862ac9" transform="matrix(1 0 0 1 540 540)">
</g>
<g transform="matrix(0 -8.19 8.19 0 575.43 556.32)">
<g style="">
		<g transform="matrix(1 0 0 1 0 0)">
<ellipse ry="28" rx="24" cy="0" cx="0" style="stroke: none; stroke-width: 1; stroke-dasharray: none; stroke-linecap: butt; stroke-dashoffset: 0; stroke-linejoin: miter; stroke-miterlimit: 4; fill: rgb(37,40,57); fill-rule: nonzero; opacity: 1;"/>
</g>
		<g transform="matrix(1 0 0 1 -23 10)">
<path stroke-linecap="round" d="M 24 20 C 24 20 28 55.9999 48 56 L 0 55.9997 C 18 55.9998 24 20 24 20 Z" transform="translate(-24, -38)" style="stroke: none; stroke-width: 1; stroke-dasharray: none; stroke-linecap: butt; stroke-dashoffset: 0; stroke-linejoin: miter; stroke-miterlimit: 4; fill: rgb(37,40,57); fill-rule: nonzero; opacity: 1;"/>
</g>
		<g transform="matrix(1 0 0 1 23 10)">
<path stroke-linecap="round" d="M 70 20 C 70 20 66 55.9999 46 56 L 94 55.9997 C 76 55.9998 70 20 70 20 Z" transform="translate(-70, -38)" style="stroke: none; stroke-width: 1; stroke-dasharray: none; stroke-linecap: butt; stroke-dashoffset: 0; stroke-linejoin: miter; stroke-miterlimit: 4; fill: rgb(37,40,57); fill-rule: nonzero; opacity: 1;"/>
</g>
</g>
</g>
<g transform="matrix(NaN NaN NaN NaN 0 0)">
<g style="">
</g>
</g>
<g transform="matrix(NaN NaN NaN NaN 0 0)">
<g style="">
</g>
</g>
</svg>